<?xml version="1.0" encoding="UTF-8"?>
<svg xmlns="http://www.w3.org/2000/svg" width="2800" height="980" viewBox="0 0 2800 980">
  <defs>
    <marker id="arrow" markerWidth="10" markerHeight="10" refX="5" refY="5" orient="auto-start-reverse">
      <path d="M 0 5 L 10 0 L 8 5 L 10 10 z" fill="#6f7c82" />
    </marker>
    <filter id="shadow" x="-20%" y="-20%" width="140%" height="140%">
      <feDropShadow dx="0" dy="6" stdDeviation="8" flood-color="#000000" flood-opacity="0.12"/>
    </filter>
  </defs>
  <style>
    text { font-family: Helvetica, Arial, sans-serif; fill: #24313a; }
    .title { font-size: 34px; font-weight: 700; }
    .subtitle { font-size: 18px; fill: #6f7c82; }
    .label { font-size: 18px; font-weight: 700; }
    .small { font-size: 15px; fill: #6f7c82; }
    .tiny { font-size: 13px; fill: #6f7c82; }
    .dim { font-size: 16px; font-weight: 700; fill: #6f7c82; }
  </style>
  <rect x="0" y="0" width="2800" height="980" fill="#f5efe3"/>
  <g transform="translate(40 50) scale(0.65)">
    
    <rect x="0" y="0" width="2800" height="980" rx="0" fill="#f5efe3" stroke="none" stroke-width="0" />
    <text x="100" y="90" class="title" text-anchor="start" >Left Wall Elevation</text>
    <text x="100" y="124" class="subtitle" text-anchor="start" >40 cm utility bench for frequent-use storage, with only rear upper storage to preserve window light</text>

    <rect x="170" y="175" width="910" height="665" rx="0" fill="#fffaf0" stroke="#24313a" stroke-width="4" />
    <rect x="170" y="525" width="676" height="315" rx="0" fill="#e7c8b3" stroke="#915532" stroke-width="3" />
    <rect x="170" y="245" width="624" height="122.5" rx="0" fill="#f4ded0" stroke="#915532" stroke-width="3" />
    <line x1="170" y1="367.5" x2="794" y2="367.5" stroke="#915532" stroke-width="4" />
    <line x1="846" y1="175" x2="846" y2="840" stroke="#915532" stroke-width="3" stroke-dasharray="8 8"/>
    <line x1="794" y1="175" x2="794" y2="840" stroke="#915532" stroke-width="3" stroke-dasharray="8 8"/>

    <rect x="194" y="650" width="180" height="150" rx="10" fill="#efe3d7" stroke="#24313a" stroke-width="2" />
    <text x="284" y="742" class="tiny" text-anchor="middle" >Kärcher</text>
    <rect x="402" y="660" width="180" height="140" rx="10" fill="#ead8c6" stroke="#24313a" stroke-width="2" />
    <text x="492" y="742" class="tiny" text-anchor="middle" >BBQ</text>
    <rect x="610" y="660" width="180" height="140" rx="10" fill="#ddd7cc" stroke="#24313a" stroke-width="2" />
    <text x="700" y="742" class="tiny" text-anchor="middle" >toolbox</text>

    <rect x="216" y="279.5" width="220" height="60" rx="8" fill="#fff3cf" stroke="#24313a" stroke-width="2" />
    <text x="326" y="317.5" class="tiny" text-anchor="middle" >fertiliser</text>
    <rect x="460" y="279.5" width="220" height="60" rx="8" fill="#dfe9f4" stroke="#24313a" stroke-width="2" />
    <text x="570" y="317.5" class="tiny" text-anchor="middle" >cord + gloves</text>
    <rect x="1004" y="280" width="28" height="180" rx="8" fill="#e7ede9" stroke="#24313a" stroke-width="2" />
    <rect x="1040" y="315" width="18" height="150" rx="8" fill="#e7ede9" stroke="#24313a" stroke-width="2" />
    <text x="1066" y="329" class="tiny" text-anchor="end" >shallow front hook strip</text>

    
    <rect x="1240" y="180" width="320" height="104" rx="16" fill="#fffaf0" stroke="none" stroke-width="0" filter="url(#shadow)"/>
    <text x="1258" y="210" class="label" text-anchor="start" >Bench logic</text>
    <text x="1258" y="232" class="small" text-anchor="start" >40 cm depth preserves floor width and still hides bulky kit</text>
    
    <rect x="1220" y="682" width="320" height="98" rx="16" fill="#fffaf0" stroke="none" stroke-width="0" filter="url(#shadow)"/>
    <text x="1238" y="712" class="label" text-anchor="start" >Front-side rule</text>
    <text x="1238" y="734" class="small" text-anchor="start" >Front 45 cm stays shallow only</text>

    <text x="230" y="507" class="small" text-anchor="start" >90 cm bench top</text>
    <text x="230" y="349.5" class="small" text-anchor="start" >135 cm shallow shelf</text>
    <text x="230" y="233" class="small" text-anchor="start" >170 cm upper tool-board limit</text>

    
    <line x1="170" y1="910" x2="1080" y2="910" stroke="#6f7c82" stroke-width="2" marker-start="url(#arrow)" marker-end="url(#arrow)"/>
    <line x1="170" y1="892" x2="170" y2="928" stroke="#d9cfbc" stroke-width="2" />
    <line x1="1080" y1="892" x2="1080" y2="928" stroke="#d9cfbc" stroke-width="2" />
    <text x="625" y="902" class="dim" text-anchor="middle" >175 cm wall length</text>
    
    <line x1="170" y1="958" x2="846" y2="958" stroke="#6f7c82" stroke-width="2" marker-start="url(#arrow)" marker-end="url(#arrow)"/>
    <line x1="170" y1="940" x2="170" y2="976" stroke="#d9cfbc" stroke-width="2" />
    <line x1="846" y1="940" x2="846" y2="976" stroke="#d9cfbc" stroke-width="2" />
    <text x="508" y="950" class="dim" text-anchor="middle" >130 cm bench run</text>
    
    <line x1="846" y1="958" x2="1080" y2="958" stroke="#6f7c82" stroke-width="2" marker-start="url(#arrow)" marker-end="url(#arrow)"/>
    <line x1="846" y1="940" x2="846" y2="976" stroke="#d9cfbc" stroke-width="2" />
    <line x1="1080" y1="940" x2="1080" y2="976" stroke="#d9cfbc" stroke-width="2" />
    <text x="963" y="950" class="dim" text-anchor="middle" >45 cm shallow front strip</text>
    
    <line x1="90" y1="175" x2="90" y2="840" stroke="#6f7c82" stroke-width="2" marker-start="url(#arrow)" marker-end="url(#arrow)"/>
    <line x1="72" y1="175" x2="108" y2="175" stroke="#d9cfbc" stroke-width="2" />
    <line x1="72" y1="840" x2="108" y2="840" stroke="#d9cfbc" stroke-width="2" />
    <text x="102" y="503.5" class="dim" text-anchor="start" >190 cm eaves height</text>
    
    <line x1="1160" y1="525" x2="1160" y2="840" stroke="#6f7c82" stroke-width="2" marker-start="url(#arrow)" marker-end="url(#arrow)"/>
    <line x1="1142" y1="525" x2="1178" y2="525" stroke="#d9cfbc" stroke-width="2" />
    <line x1="1142" y1="840" x2="1178" y2="840" stroke="#d9cfbc" stroke-width="2" />
    <text x="1172" y="678.5" class="dim" text-anchor="start" >90 cm bench</text>
  
  </g>
</svg>