<?xml version="1.0" encoding="UTF-8"?>
<svg xmlns="http://www.w3.org/2000/svg" width="3400" height="980" viewBox="0 0 3400 980">
  <defs>
    <marker id="arrow" markerWidth="10" markerHeight="10" refX="5" refY="5" orient="auto-start-reverse">
      <path d="M 0 5 L 10 0 L 8 5 L 10 10 z" fill="#6f7c82" />
    </marker>
    <filter id="shadow" x="-20%" y="-20%" width="140%" height="140%">
      <feDropShadow dx="0" dy="6" stdDeviation="8" flood-color="#000000" flood-opacity="0.12"/>
    </filter>
  </defs>
  <style>
    text { font-family: Helvetica, Arial, sans-serif; fill: #24313a; }
    .title { font-size: 34px; font-weight: 700; }
    .subtitle { font-size: 18px; fill: #6f7c82; }
    .label { font-size: 18px; font-weight: 700; }
    .small { font-size: 15px; fill: #6f7c82; }
    .tiny { font-size: 13px; fill: #6f7c82; }
    .dim { font-size: 16px; font-weight: 700; fill: #6f7c82; }
  </style>
  <rect x="0" y="0" width="3400" height="980" fill="#f5efe3"/>
  <g transform="translate(40 50) scale(0.65)">
    
    <rect x="0" y="0" width="3400" height="980" rx="0" fill="#f5efe3" stroke="none" stroke-width="0" />
    <text x="100" y="90" class="title" text-anchor="start" >Right Wall Elevation</text>
    <text x="100" y="124" class="subtitle" text-anchor="start" >Rear 120 cm becomes the single 60 cm deep bay; the front 55 cm stays open for ladders and garden tools</text>

    <rect x="170" y="175" width="910" height="665" rx="0" fill="#fffaf0" stroke="#24313a" stroke-width="4" />
    <rect x="170" y="518" width="624" height="322" rx="0" fill="#cae0de" stroke="#41696a" stroke-width="3" />
    <line x1="170" y1="752.5" x2="794" y2="752.5" stroke="#41696a" stroke-width="4" />
    <line x1="170" y1="402.5" x2="794" y2="402.5" stroke="#41696a" stroke-width="4" />
    <line x1="170" y1="280" x2="794" y2="280" stroke="#41696a" stroke-width="4" />
    <line x1="794" y1="175" x2="794" y2="840" stroke="#41696a" stroke-width="3" stroke-dasharray="8 8"/>

    <rect x="216" y="758" width="532" height="68" rx="10" fill="#d8d0c5" stroke="#24313a" stroke-width="2" />
    <text x="482" y="802" class="tiny" text-anchor="middle" >tile deck below bench</text>
    <rect x="218" y="324.5" width="210" height="52" rx="8" fill="#eef2f6" stroke="#24313a" stroke-width="2" />
    <text x="323" y="358.5" class="tiny" text-anchor="middle" >sprays / jars</text>
    <rect x="456" y="202" width="210" height="52" rx="8" fill="#f4f0e9" stroke="#24313a" stroke-width="2" />
    <text x="561" y="236" class="tiny" text-anchor="middle" >light spare items</text>

    <rect x="828" y="315" width="30" height="220" rx="8" fill="#eef5f4" stroke="#24313a" stroke-width="2" />
    <rect x="880" y="357" width="16" height="180" rx="8" fill="#eef5f4" stroke="#24313a" stroke-width="2" />
    <rect x="916" y="378" width="16" height="170" rx="8" fill="#eef5f4" stroke="#24313a" stroke-width="2" />
    <text x="814" y="231" class="tiny" text-anchor="start" >folding ladder + tool clips</text>


    <text x="230" y="500" class="small" text-anchor="start" >92 cm deep bench</text>
    <text x="230" y="384.5" class="small" text-anchor="start" >125 cm shelf</text>
    <text x="230" y="262" class="small" text-anchor="start" >160 cm light shelf</text>

    
    <line x1="170" y1="910" x2="1080" y2="910" stroke="#6f7c82" stroke-width="2" marker-start="url(#arrow)" marker-end="url(#arrow)"/>
    <line x1="170" y1="892" x2="170" y2="928" stroke="#d9cfbc" stroke-width="2" />
    <line x1="1080" y1="892" x2="1080" y2="928" stroke="#d9cfbc" stroke-width="2" />
    <text x="625" y="902" class="dim" text-anchor="middle" >175 cm wall length</text>
    
    <line x1="170" y1="958" x2="794" y2="958" stroke="#6f7c82" stroke-width="2" marker-start="url(#arrow)" marker-end="url(#arrow)"/>
    <line x1="170" y1="940" x2="170" y2="976" stroke="#d9cfbc" stroke-width="2" />
    <line x1="794" y1="940" x2="794" y2="976" stroke="#d9cfbc" stroke-width="2" />
    <text x="482" y="950" class="dim" text-anchor="middle" >120 cm deep-bay run</text>
    
    <line x1="794" y1="958" x2="1080" y2="958" stroke="#6f7c82" stroke-width="2" marker-start="url(#arrow)" marker-end="url(#arrow)"/>
    <line x1="794" y1="940" x2="794" y2="976" stroke="#d9cfbc" stroke-width="2" />
    <line x1="1080" y1="940" x2="1080" y2="976" stroke="#d9cfbc" stroke-width="2" />
    <text x="937" y="950" class="dim" text-anchor="middle" >55 cm open strip</text>
    
    <line x1="90" y1="175" x2="90" y2="840" stroke="#6f7c82" stroke-width="2" marker-start="url(#arrow)" marker-end="url(#arrow)"/>
    <line x1="72" y1="175" x2="108" y2="175" stroke="#d9cfbc" stroke-width="2" />
    <line x1="72" y1="840" x2="108" y2="840" stroke="#d9cfbc" stroke-width="2" />
    <text x="102" y="503.5" class="dim" text-anchor="start" >190 cm eaves height</text>
    
    <line x1="1160" y1="518" x2="1160" y2="840" stroke="#6f7c82" stroke-width="2" marker-start="url(#arrow)" marker-end="url(#arrow)"/>
    <line x1="1142" y1="518" x2="1178" y2="518" stroke="#d9cfbc" stroke-width="2" />
    <line x1="1142" y1="840" x2="1178" y2="840" stroke="#d9cfbc" stroke-width="2" />
    <text x="1172" y="675" class="dim" text-anchor="start" >92 cm bench</text>
  
  </g>
</svg>