<?xml version="1.0" encoding="UTF-8"?>
<svg xmlns="http://www.w3.org/2000/svg" width="3600" height="1100" viewBox="0 0 3600 1100">
  <defs>
    <marker id="arrow" markerWidth="10" markerHeight="10" refX="5" refY="5" orient="auto-start-reverse">
      <path d="M 0 5 L 10 0 L 8 5 L 10 10 z" fill="#6f7c82" />
    </marker>
    <filter id="shadow" x="-20%" y="-20%" width="140%" height="140%">
      <feDropShadow dx="0" dy="6" stdDeviation="8" flood-color="#000000" flood-opacity="0.12"/>
    </filter>
  </defs>
  <style>
    text { font-family: Helvetica, Arial, sans-serif; fill: #24313a; }
    .title { font-size: 34px; font-weight: 700; }
    .subtitle { font-size: 18px; fill: #6f7c82; }
    .label { font-size: 18px; font-weight: 700; }
    .small { font-size: 15px; fill: #6f7c82; }
    .tiny { font-size: 13px; fill: #6f7c82; }
    .dim { font-size: 16px; font-weight: 700; fill: #6f7c82; }
  </style>
  <rect x="0" y="0" width="3600" height="1100" fill="#f5efe3"/>
  <g transform="translate(40 50) scale(0.65)">
    
    <rect x="0" y="0" width="3600" height="1100" rx="0" fill="#f5efe3" stroke="none" stroke-width="0" />
    <text x="100" y="90" class="title" text-anchor="start" >Top-Down Plan · ChatGPT Design 1</text>
    <text x="100" y="124" class="subtitle" text-anchor="start" >298 cm x 175 cm shed · front wall kept clear · mixed 40 cm and 60 cm storage depths</text>

    
    <rect x="820" y="72" width="440" height="112" rx="16" fill="#fffaf0" stroke="none" stroke-width="0" filter="url(#shadow)"/>
    <text x="838" y="102" class="label" text-anchor="start" >Chosen layout</text>
    <text x="838" y="124" class="small" text-anchor="start" >Back spine + right deep bay + left utility bench</text>

    <rect x="220" y="210" width="1192" height="700" rx="0" fill="#fffaf0" stroke="#24313a" stroke-width="4" filter="url(#shadow)"/>
    <rect x="222" y="212" width="1188" height="696" rx="0" fill="#e7f1ea" stroke="none" stroke-width="0" />

    <rect x="220" y="210" width="1192" height="160" rx="0" fill="#cfe0c7" stroke="#5e7754" stroke-width="3" />
    <rect x="220" y="210" width="160" height="520" rx="0" fill="#e6c0a5" stroke="#915532" stroke-width="3" />
    <rect x="1172" y="210" width="240" height="480" rx="0" fill="#bad4d1" stroke="#41696a" stroke-width="3" />
    <rect x="220" y="730" width="16" height="176" rx="0" fill="#f7efe7" stroke="#915532" stroke-width="2" />
    <rect x="1396" y="690" width="16" height="216" rx="0" fill="#eef5f4" stroke="#41696a" stroke-width="2" />

    <line x1="220" y1="910" x2="636" y2="910" stroke="#24313a" stroke-width="4" />
    <line x1="996" y1="910" x2="1412" y2="910" stroke="#24313a" stroke-width="4" />
    <line x1="636" y1="910" x2="996" y2="910" stroke="#cbb89c" stroke-width="6" />
    <path d="M 636 910 A 360 360 0 0 0 996 1270" fill="none" stroke="#cbb89c" stroke-width="2" stroke-dasharray="8 8"/>
    <rect x="376" y="898" width="260" height="12" rx="0" fill="#d9eef6" stroke="#24313a" stroke-width="2" />
    <rect x="996" y="898" width="260" height="12" rx="0" fill="#d9eef6" stroke="#24313a" stroke-width="2" />

    <text x="252" y="262" class="label" text-anchor="start" >Back shelving spine</text>
    <text x="252" y="288" class="small" text-anchor="start" >298 x 40 cm · repeated box modules</text>

    
    <rect x="248" y="510" width="255" height="98" rx="16" fill="#f4d8c7" stroke="none" stroke-width="0" filter="url(#shadow)"/>
    <text x="266" y="540" class="label" text-anchor="start" >Left utility bench</text>
    <text x="266" y="562" class="small" text-anchor="start" >130 x 40 cm · 90 cm high</text>
    
    <rect x="1077" y="450" width="305" height="106" rx="16" fill="#d5e8e5" stroke="none" stroke-width="0" filter="url(#shadow)"/>
    <text x="1095" y="480" class="label" text-anchor="start" >Right deep bay</text>
    <text x="1095" y="502" class="small" text-anchor="start" >120 x 60 cm · tiles below bench</text>
    
    <rect x="680" y="720" width="320" height="96" rx="16" fill="#edf5ee" stroke="none" stroke-width="0" filter="url(#shadow)"/>
    <text x="698" y="750" class="label" text-anchor="start" >Central clear floor</text>
    <text x="698" y="772" class="small" text-anchor="start" >Approx. 198 cm rear width · 135 cm clear depth</text>

    <text x="816" y="968" class="small" text-anchor="middle" >outward-opening central door</text>
    <text x="506" y="948" class="tiny" text-anchor="middle" >window</text>
    <text x="1126" y="948" class="tiny" text-anchor="middle" >window</text>
    <text x="230" y="194" class="small" text-anchor="start" >Back wall</text>
    <text x="1402" y="1002" class="small" text-anchor="end" >Front wall kept clear</text>

    
    <line x1="220" y1="140" x2="1412" y2="140" stroke="#6f7c82" stroke-width="2" marker-start="url(#arrow)" marker-end="url(#arrow)"/>
    <line x1="220" y1="122" x2="220" y2="158" stroke="#d9cfbc" stroke-width="2" />
    <line x1="1412" y1="122" x2="1412" y2="158" stroke="#d9cfbc" stroke-width="2" />
    <text x="816" y="132" class="dim" text-anchor="middle" >298 cm overall</text>
    
    <line x1="140" y1="210" x2="140" y2="910" stroke="#6f7c82" stroke-width="2" marker-start="url(#arrow)" marker-end="url(#arrow)"/>
    <line x1="122" y1="210" x2="158" y2="210" stroke="#d9cfbc" stroke-width="2" />
    <line x1="122" y1="910" x2="158" y2="910" stroke="#d9cfbc" stroke-width="2" />
    <text x="152" y="556" class="dim" text-anchor="start" >175 cm overall</text>
    
    <line x1="1472" y1="210" x2="1472" y2="370" stroke="#6f7c82" stroke-width="2" marker-start="url(#arrow)" marker-end="url(#arrow)"/>
    <line x1="1454" y1="210" x2="1490" y2="210" stroke="#d9cfbc" stroke-width="2" />
    <line x1="1454" y1="370" x2="1490" y2="370" stroke="#d9cfbc" stroke-width="2" />
    <text x="1484" y="286" class="dim" text-anchor="start" >40 cm back shelving</text>
    
    <line x1="1172" y1="800" x2="1412" y2="800" stroke="#6f7c82" stroke-width="2" marker-start="url(#arrow)" marker-end="url(#arrow)"/>
    <line x1="1172" y1="782" x2="1172" y2="818" stroke="#d9cfbc" stroke-width="2" />
    <line x1="1412" y1="782" x2="1412" y2="818" stroke="#d9cfbc" stroke-width="2" />
    <text x="1292" y="792" class="dim" text-anchor="middle" >60 cm deep bay</text>
    
    <line x1="1532" y1="210" x2="1532" y2="690" stroke="#6f7c82" stroke-width="2" marker-start="url(#arrow)" marker-end="url(#arrow)"/>
    <line x1="1514" y1="210" x2="1550" y2="210" stroke="#d9cfbc" stroke-width="2" />
    <line x1="1514" y1="690" x2="1550" y2="690" stroke="#d9cfbc" stroke-width="2" />
    <text x="1544" y="446" class="dim" text-anchor="start" >120 cm rear deep zone</text>
    
    <line x1="80" y1="210" x2="80" y2="730" stroke="#6f7c82" stroke-width="2" marker-start="url(#arrow)" marker-end="url(#arrow)"/>
    <line x1="62" y1="210" x2="98" y2="210" stroke="#d9cfbc" stroke-width="2" />
    <line x1="62" y1="730" x2="98" y2="730" stroke="#d9cfbc" stroke-width="2" />
    <text x="92" y="466" class="dim" text-anchor="start" >130 cm utility bench run</text>
    
    <line x1="380" y1="710" x2="1172" y2="710" stroke="#6f7c82" stroke-width="2" marker-start="url(#arrow)" marker-end="url(#arrow)"/>
    <line x1="380" y1="692" x2="380" y2="728" stroke="#d9cfbc" stroke-width="2" />
    <line x1="1172" y1="692" x2="1172" y2="728" stroke="#d9cfbc" stroke-width="2" />
    <text x="776" y="702" class="dim" text-anchor="middle" >198 cm rear clear width</text>
    
    <line x1="1100" y1="370" x2="1100" y2="910" stroke="#6f7c82" stroke-width="2" marker-start="url(#arrow)" marker-end="url(#arrow)"/>
    <line x1="1082" y1="370" x2="1118" y2="370" stroke="#d9cfbc" stroke-width="2" />
    <line x1="1082" y1="910" x2="1118" y2="910" stroke="#d9cfbc" stroke-width="2" />
    <text x="1112" y="636" class="dim" text-anchor="start" >135 cm clear depth</text>

    <rect x="106" y="910" width="428" height="110" rx="18" fill="#fffaf0" stroke="none" stroke-width="0" filter="url(#shadow)"/>
    <rect x="132" y="944" width="28" height="20" rx="0" fill="#cfe0c7" stroke="#5e7754" stroke-width="2" />
    <text x="174" y="960" class="small" text-anchor="start" >40 cm back-wall shelving</text>
    <rect x="132" y="978" width="28" height="20" rx="0" fill="#bad4d1" stroke="#41696a" stroke-width="2" />
    <text x="174" y="994" class="small" text-anchor="start" >60 cm right-side deep bay</text>
    <rect x="132" y="1012" width="28" height="20" rx="0" fill="#e6c0a5" stroke="#915532" stroke-width="2" />
    <text x="174" y="1028" class="small" text-anchor="start" >40 cm left utility bench</text>

    <text x="1040" y="930" class="label" text-anchor="start" >Front-side rule respected</text>
    <text x="1040" y="958" class="small" text-anchor="start" >Tall/deep storage stays in the rear part of each short wall.</text>
    <text x="1040" y="984" class="small" text-anchor="start" >Front 45-55 cm of each short wall remains shallow and visually light.</text>
  
  </g>
</svg>