<?xml version="1.0" encoding="UTF-8"?>
<svg xmlns="http://www.w3.org/2000/svg" width="3800" height="1040" viewBox="0 0 3800 1040">
  <defs>
    <marker id="arrow" markerWidth="10" markerHeight="10" refX="5" refY="5" orient="auto-start-reverse">
      <path d="M 0 5 L 10 0 L 8 5 L 10 10 z" fill="#6f7c82" />
    </marker>
    <filter id="shadow" x="-20%" y="-20%" width="140%" height="140%">
      <feDropShadow dx="0" dy="6" stdDeviation="8" flood-color="#000000" flood-opacity="0.12"/>
    </filter>
  </defs>
  <style>
    text { font-family: Helvetica, Arial, sans-serif; fill: #24313a; }
    .title { font-size: 34px; font-weight: 700; }
    .subtitle { font-size: 18px; fill: #6f7c82; }
    .label { font-size: 18px; font-weight: 700; }
    .small { font-size: 15px; fill: #6f7c82; }
    .tiny { font-size: 13px; fill: #6f7c82; }
    .dim { font-size: 16px; font-weight: 700; fill: #6f7c82; }
  </style>
  <rect x="0" y="0" width="3800" height="1040" fill="#f5efe3"/>
  <g transform="translate(40 50) scale(0.65)">
    
    <rect x="0" y="0" width="3800" height="1040" rx="0" fill="#f5efe3" stroke="none" stroke-width="0" />
    <text x="100" y="90" class="title" text-anchor="start" >View From Door</text>
    <text x="100" y="124" class="subtitle" text-anchor="start" >Interior cutaway looking toward the back wall. Front wall omitted to show the storage fit-out.</text>

    <polygon points="330,860 1134.6,860 915.8499999999999,699 111.25,699" fill="#efe9db" stroke="#cfc2ac" stroke-width="3" filter="url(#shadow)"/>
    <polygon points="330,860 111.25,699 111.25,252.5 330,413.5" fill="#fbf7ef" stroke="#d7ccb9" stroke-width="2" />
    <polygon points="1134.6,860 915.8499999999999,699 915.8499999999999,252.5 1134.6,413.5" fill="#fbf7ef" stroke="#d7ccb9" stroke-width="2" />
    <polygon points="111.25,699 915.8499999999999,699 915.8499999999999,252.5 513.55,186.93499999999995 111.25,252.5" fill="#f6f0e6" stroke="#d7ccb9" stroke-width="2" />

    <polygon points="161.25,383.3 965.8499999999999,383.3 915.8499999999999,346.5 111.25,346.5" fill="#a5c194" stroke="#24313a" stroke-width="2.5" /><polygon points="965.8499999999999,735.8 915.8499999999999,699 915.8499999999999,346.5 965.8499999999999,383.3" fill="#6c8a63" stroke="#24313a" stroke-width="2.5" /><polygon points="161.25,735.8 965.8499999999999,735.8 965.8499999999999,383.3 161.25,383.3" fill="#8eb086" stroke="#24313a" stroke-width="2.5" />
    <polygon points="273.75,607.1 381.75,607.1 219.25,487.5 111.25,487.5" fill="#e4b18c" stroke="#24313a" stroke-width="2.5" /><polygon points="273.75,818.6 111.25,699 111.25,487.5 273.75,607.1" fill="#b46d40" stroke="#24313a" stroke-width="2.5" /><polygon points="273.75,818.6 381.75,818.6 381.75,607.1 273.75,607.1" fill="#d39a71" stroke="#24313a" stroke-width="2.5" />
    <polygon points="903.85,593.1999999999999 1065.85,593.1999999999999 915.8499999999999,482.79999999999995 753.85,482.79999999999995" fill="#93c0bd" stroke="#24313a" stroke-width="2.5" /><polygon points="1065.85,809.4 915.8499999999999,699 915.8499999999999,482.79999999999995 1065.85,593.1999999999999" fill="#5b8485" stroke="#24313a" stroke-width="2.5" /><polygon points="903.85,809.4 1065.85,809.4 1065.85,593.1999999999999 903.85,593.1999999999999" fill="#78a9a8" stroke="#24313a" stroke-width="2.5" />
    <polygon points="261.25,492.15 320.65,492.15 170.64999999999998,381.75 111.25,381.75" fill="#f1e2d7" stroke="#24313a" stroke-width="2.5" /><polygon points="261.25,597.9 111.25,487.5 111.25,381.75 261.25,492.15" fill="#d2b19d" stroke="#24313a" stroke-width="2.5" /><polygon points="261.25,597.9 320.65,597.9 320.65,492.15 261.25,492.15" fill="#e9d6c8" stroke="#24313a" stroke-width="2.5" />
    <polygon points="903.85,515.65 1065.85,515.65 915.8499999999999,405.25 753.85,405.25" fill="#afd3d0" stroke="#24313a" stroke-width="2.5" /><polygon points="1065.85,593.1999999999999 915.8499999999999,482.79999999999995 915.8499999999999,405.25 1065.85,515.65" fill="#84adab" stroke="#24313a" stroke-width="2.5" /><polygon points="903.85,593.1999999999999 1065.85,593.1999999999999 1065.85,515.65 903.85,515.65" fill="#9bc2c0" stroke="#24313a" stroke-width="2.5" />
    <polygon points="903.85,492.15 1065.85,492.15 915.8499999999999,381.75 753.85,381.75" fill="#badad8" stroke="#24313a" stroke-width="2.5" /><polygon points="1065.85,515.65 915.8499999999999,405.25 915.8499999999999,381.75 1065.85,492.15" fill="#8fb5b3" stroke="#24313a" stroke-width="2.5" /><polygon points="903.85,515.65 1065.85,515.65 1065.85,492.15 903.85,492.15" fill="#a7cbc9" stroke="#24313a" stroke-width="2.5" />
    <polygon points="903.85,409.9 1065.85,409.9 915.8499999999999,299.5 753.85,299.5" fill="#cde3e1" stroke="#24313a" stroke-width="2.5" /><polygon points="1065.85,433.4 915.8499999999999,323 915.8499999999999,299.5 1065.85,409.9" fill="#a5c0be" stroke="#24313a" stroke-width="2.5" /><polygon points="903.85,433.4 1065.85,433.4 1065.85,409.9 903.85,409.9" fill="#bfd9d7" stroke="#24313a" stroke-width="2.5" />

    <line x1="251.64999999999998" y1="257.2" x2="791.6500000000001" y2="257.2" stroke="#b73f2d" stroke-width="5" />
    <line x1="1031.1" y1="843.44" x2="1031.1" y2="490.94" stroke="#41696a" stroke-width="5" />
    <line x1="1058.5" y1="839.76" x2="1058.5" y2="510.76" stroke="#41696a" stroke-width="5" />
    <line x1="1080.5" y1="836.08" x2="1080.5" y2="516.48" stroke="#41696a" stroke-width="5" />

    <line x1="429.5" y1="357.44" x2="1480" y2="286" stroke="#6f7c82" stroke-width="2" /><text x="1470" y="280" class="small" text-anchor="end" >Back wall shelving</text>
    <line x1="879.1500000000001" y1="542.5" x2="1480" y2="420" stroke="#6f7c82" stroke-width="2" /><text x="1470" y="414" class="small" text-anchor="end" >Right deep bay</text>
    <line x1="268.1" y1="542.5999999999999" x2="150" y2="410" stroke="#6f7c82" stroke-width="2" /><text x="160" y="404" class="small" text-anchor="start" >Left utility bench</text>
    <line x1="674.5" y1="795.6" x2="770" y2="760" stroke="#6f7c82" stroke-width="2" /><text x="780" y="754" class="small" text-anchor="start" >Open centre floor area</text>
    <line x1="556.75" y1="257.2" x2="820" y2="214" stroke="#6f7c82" stroke-width="2" /><text x="830" y="208" class="small" text-anchor="start" >High ladder rack</text>
    <line x1="1066.4" y1="498.5" x2="1500" y2="580" stroke="#6f7c82" stroke-width="2" /><text x="1490" y="574" class="small" text-anchor="end" >Ladder + tool strip</text>

    
    <rect x="980" y="760" width="520" height="118" rx="16" fill="#fffaf0" stroke="none" stroke-width="0" filter="url(#shadow)"/>
    <text x="998" y="790" class="label" text-anchor="start" >Why this view matters</text>
    <text x="998" y="812" class="small" text-anchor="start" >It shows that the middle stays open even with the back wall full and one side deepened to 60 cm.</text>
  
  </g>
</svg>