<?xml version="1.0" encoding="UTF-8"?>
<svg xmlns="http://www.w3.org/2000/svg" width="2200" height="2200" viewBox="0 0 2200 2200">
  <defs>
    <marker id="arrow" markerWidth="12" markerHeight="12" refX="6" refY="6" orient="auto-start-reverse">
      <path d="M 0 6 L 12 0 L 9 6 L 12 12 z" fill="#6d7a83"/>
    </marker>
    <filter id="shadow" x="-20%" y="-20%" width="140%" height="140%">
      <feDropShadow dx="0" dy="8" stdDeviation="10" flood-color="#000000" flood-opacity="0.12"/>
    </filter>
  </defs>
  <style>
    text { font-family: Helvetica, Arial, sans-serif; fill: #22313a; }
    .title { font-size: 34px; font-weight: 700; }
    .subtitle { font-size: 20px; fill: #61727b; }
    .label { font-size: 22px; font-weight: 700; }
    .small { font-size: 18px; fill: #61727b; }
    .tiny { font-size: 16px; fill: #61727b; }
    .dim { font-size: 18px; font-weight: 700; fill: #61727b; }
  </style>
  <rect x="0" y="0" width="2200" height="1600" fill="#f4efe4"/>
  <g transform="translate(120 80) scale(0.74)">
  <text x="90" y="86" class="title">Top-Down Plan · Shed Storage · ChatGPT Design 3</text>
  <text x="90" y="126" class="subtitle">298 cm x 175 cm shed · front wall kept clear · 42 cm back shelf spine + 120 x 60 cm left tile dock + 110 x 42 cm right workbench</text>

  <rect x="90" y="162" width="1740" height="118" rx="18" fill="#fff9ef" stroke="#d0c2aa" stroke-width="2" filter="url(#shadow)"/>
  <text x="122" y="208" class="label">Chosen storage logic</text>
  <text x="122" y="244" class="small">Back wall handles repeatable box runs, left rear solves the tile depth requirement, right rear stays active with bench and tool wall.</text>

  <rect x="300" y="340" width="1490" height="875" fill="#fffaf2" stroke="#233139" stroke-width="4" filter="url(#shadow)"/>
  <rect x="304" y="344" width="1482" height="867" fill="#e7f0e4"/>

  <rect x="300" y="340" width="1490" height="210" fill="#cddfc6" stroke="#5c7850" stroke-width="3"/>
  <line x1="720" y1="340" x2="720" y2="550" stroke="#5c7850" stroke-width="3"/>
  <line x1="1370" y1="340" x2="1370" y2="550" stroke="#5c7850" stroke-width="3"/>
  <rect x="342" y="368" width="330" height="116" rx="16" fill="#f7efe3" stroke="#cba782" stroke-width="2" filter="url(#shadow)"/>
  <text x="366" y="412" class="label">B1 back-left</text>
  <text x="366" y="444" class="small">84 cm bay</text>
  <text x="366" y="474" class="small">one large box per shelf</text>
  <rect x="760" y="368" width="546" height="116" rx="16" fill="#f7efe3" stroke="#cba782" stroke-width="2" filter="url(#shadow)"/>
  <text x="786" y="412" class="label">B2 back-centre</text>
  <text x="786" y="444" class="small">130 cm bay</text>
  <text x="786" y="474" class="small">two large boxes per shelf</text>
  <rect x="1418" y="368" width="330" height="116" rx="16" fill="#f7efe3" stroke="#cba782" stroke-width="2" filter="url(#shadow)"/>
  <text x="1442" y="412" class="label">B3 back-right</text>
  <text x="1442" y="444" class="small">84 cm bay</text>
  <text x="1442" y="474" class="small">paints + medium boxes</text>

  <rect x="300" y="340" width="300" height="600" fill="#e2bca1" stroke="#8b5435" stroke-width="3"/>
  <rect x="336" y="644" width="236" height="184" rx="16" fill="#f4d8c8" stroke="#8b5435" stroke-width="2" filter="url(#shadow)"/>
  <text x="366" y="696" class="label">L1 tile dock</text>
  <text x="366" y="728" class="small">120 x 60 cm</text>
  <text x="366" y="758" class="small">tiles low on deck</text>
  <text x="366" y="788" class="small">top used as staging shelf</text>

  <rect x="300" y="940" width="90" height="275" fill="#efe3d6" stroke="#8b5435" stroke-width="2"/>
  <text x="408" y="1030" class="small">L2 shallow strip</text>
  <text x="408" y="1060" class="small">folding ladder +</text>
  <text x="408" y="1090" class="small">long tools on clips</text>

  <rect x="1580" y="340" width="210" height="550" fill="#cfe6e1" stroke="#3f6b68" stroke-width="3"/>
  <rect x="1396" y="616" width="312" height="180" rx="16" fill="#d7ece9" stroke="#3f6b68" stroke-width="2" filter="url(#shadow)"/>
  <text x="1426" y="668" class="label">R1 workbench</text>
  <text x="1426" y="700" class="small">110 x 42 cm</text>
  <text x="1426" y="730" class="small">tool board above</text>
  <text x="1426" y="760" class="small">Kärcher + toolbox below</text>

  <circle cx="1490" cy="1030" r="150" fill="#eef2ea" stroke="#6a7f68" stroke-width="3"/>
  <text x="1490" y="1024" class="label" text-anchor="middle">BBQ</text>
  <text x="1490" y="1056" class="small" text-anchor="middle">R2 front-right pocket</text>

  <rect x="760" y="856" width="636" height="140" rx="18" fill="#edf6ef" stroke="#7b8f7d" stroke-width="2" filter="url(#shadow)"/>
  <text x="794" y="908" class="label">Central clear floor</text>
  <text x="794" y="940" class="small">about 196 cm rear clear width</text>
  <text x="794" y="970" class="small">about 133 cm clear depth in front of back shelves</text>

  <rect x="300" y="1215" width="400" height="14" fill="#d9edf3" stroke="#233139" stroke-width="2"/>
  <rect x="700" y="1215" width="690" height="14" fill="#efe6d2" stroke="#233139" stroke-width="2"/>
  <rect x="1390" y="1215" width="400" height="14" fill="#d9edf3" stroke="#233139" stroke-width="2"/>
  <path d="M 700 1222 A 280 280 0 0 0 980 1502" fill="none" stroke="#c6b395" stroke-width="3" stroke-dasharray="10 8"/>
  <path d="M 1390 1222 A 280 280 0 0 1 1110 1502" fill="none" stroke="#c6b395" stroke-width="3" stroke-dasharray="10 8"/>
  <text x="500" y="1200" class="tiny" text-anchor="middle">left window 80 cm</text>
  <text x="1045" y="1200" class="tiny" text-anchor="middle">double doors 138 cm</text>
  <text x="1590" y="1200" class="tiny" text-anchor="middle">right window 80 cm</text>
  <text x="1045" y="1268" class="small" text-anchor="middle">front wall remains a non-storage wall</text>

  <line x1="300" y1="288" x2="1790" y2="288" stroke="#60707a" stroke-width="3" marker-start="url(#arrow)" marker-end="url(#arrow)"/>
  <line x1="300" y1="270" x2="300" y2="306" stroke="#c8b99f" stroke-width="2"/>
  <line x1="1790" y1="270" x2="1790" y2="306" stroke="#c8b99f" stroke-width="2"/>
  <text x="1045" y="280" class="dim" text-anchor="middle">298 cm overall width</text>

  <line x1="220" y1="340" x2="220" y2="1215" stroke="#60707a" stroke-width="3" marker-start="url(#arrow)" marker-end="url(#arrow)"/>
  <line x1="202" y1="340" x2="238" y2="340" stroke="#c8b99f" stroke-width="2"/>
  <line x1="202" y1="1215" x2="238" y2="1215" stroke="#c8b99f" stroke-width="2"/>
  <text x="236" y="794" class="dim">175 cm overall depth</text>

  <line x1="1885" y1="340" x2="1885" y2="550" stroke="#60707a" stroke-width="3" marker-start="url(#arrow)" marker-end="url(#arrow)"/>
  <line x1="1867" y1="340" x2="1903" y2="340" stroke="#c8b99f" stroke-width="2"/>
  <line x1="1867" y1="550" x2="1903" y2="550" stroke="#c8b99f" stroke-width="2"/>
  <text x="1899" y="450" class="dim">42 cm shelf depth</text>

  <line x1="300" y1="1120" x2="600" y2="1120" stroke="#60707a" stroke-width="3" marker-start="url(#arrow)" marker-end="url(#arrow)"/>
  <line x1="300" y1="1102" x2="300" y2="1138" stroke="#c8b99f" stroke-width="2"/>
  <line x1="600" y1="1102" x2="600" y2="1138" stroke="#c8b99f" stroke-width="2"/>
  <text x="450" y="1112" class="dim" text-anchor="middle">60 cm deep dock</text>

  <line x1="680" y1="340" x2="680" y2="940" stroke="#60707a" stroke-width="3" marker-start="url(#arrow)" marker-end="url(#arrow)"/>
  <line x1="662" y1="340" x2="698" y2="340" stroke="#c8b99f" stroke-width="2"/>
  <line x1="662" y1="940" x2="698" y2="940" stroke="#c8b99f" stroke-width="2"/>
  <text x="694" y="648" class="dim">120 cm tile-dock run</text>

  <line x1="1580" y1="1014" x2="1790" y2="1014" stroke="#60707a" stroke-width="3" marker-start="url(#arrow)" marker-end="url(#arrow)"/>
  <line x1="1580" y1="996" x2="1580" y2="1032" stroke="#c8b99f" stroke-width="2"/>
  <line x1="1790" y1="996" x2="1790" y2="1032" stroke="#c8b99f" stroke-width="2"/>
  <text x="1685" y="1006" class="dim" text-anchor="middle">42 cm bench depth</text>

  <line x1="1544" y1="340" x2="1544" y2="890" stroke="#60707a" stroke-width="3" marker-start="url(#arrow)" marker-end="url(#arrow)"/>
  <line x1="1526" y1="340" x2="1562" y2="340" stroke="#c8b99f" stroke-width="2"/>
  <line x1="1526" y1="890" x2="1562" y2="890" stroke="#c8b99f" stroke-width="2"/>
  <text x="1558" y="628" class="dim">110 cm bench run</text>

  <line x1="600" y1="1040" x2="1580" y2="1040" stroke="#60707a" stroke-width="3" marker-start="url(#arrow)" marker-end="url(#arrow)"/>
  <line x1="600" y1="1022" x2="600" y2="1058" stroke="#c8b99f" stroke-width="2"/>
  <line x1="1580" y1="1022" x2="1580" y2="1058" stroke="#c8b99f" stroke-width="2"/>
  <text x="1090" y="1032" class="dim" text-anchor="middle">196 cm rear clear width</text>

  <line x1="1360" y1="550" x2="1360" y2="1215" stroke="#60707a" stroke-width="3" marker-start="url(#arrow)" marker-end="url(#arrow)"/>
  <line x1="1342" y1="550" x2="1378" y2="550" stroke="#c8b99f" stroke-width="2"/>
  <line x1="1342" y1="1215" x2="1378" y2="1215" stroke="#c8b99f" stroke-width="2"/>
  <text x="1374" y="890" class="dim">133 cm clear depth</text>

  <rect x="1860" y="340" width="250" height="388" rx="18" fill="#fff9ef" stroke="#d0c2aa" stroke-width="2" filter="url(#shadow)"/>
  <text x="1890" y="388" class="label">Legend</text>
  <rect x="1894" y="426" width="34" height="24" fill="#cddfc6" stroke="#5c7850" stroke-width="2"/>
  <text x="1948" y="444" class="small">42 cm back shelf spine</text>
  <rect x="1894" y="470" width="34" height="24" fill="#e2bca1" stroke="#8b5435" stroke-width="2"/>
  <text x="1948" y="488" class="small">60 cm left tile dock</text>
  <rect x="1894" y="514" width="34" height="24" fill="#cfe6e1" stroke="#3f6b68" stroke-width="2"/>
  <text x="1948" y="532" class="small">42 cm right workbench</text>
  <circle cx="1911" cy="576" r="14" fill="#eef2ea" stroke="#6a7f68" stroke-width="2"/>
  <text x="1948" y="582" class="small">BBQ parking pocket</text>
  <text x="1894" y="636" class="small">All labels and dimensions stay well inside the safe area for robust PNG export.</text>
  </g>
</svg>
